<?xml version="1.0" standalone="no"?>
<!DOCTYPE svg PUBLIC "-//W3C//DTD SVG 20010904//EN"
 "http://www.w3.org/TR/2001/REC-SVG-20010904/DTD/svg10.dtd">
<svg version="1.0" xmlns="http://www.w3.org/2000/svg"
 width="2500.000000pt" height="478.000000pt" viewBox="0 0 2500.000000 478.000000"
 preserveAspectRatio="xMidYMid meet">

<g transform="translate(0.000000,478.000000) scale(0.100000,-0.100000)"
fill="#000000" stroke="none">
<path d="M7235 4751 c-94 -26 -138 -45 -218 -97 -86 -56 -162 -126 -192 -179
-101 -172 -1274 -3110 -1611 -4033 -102 -279 -100 -309 22 -322 66 -7 624 5
710 16 l40 5 159 397 c86 218 163 406 170 418 13 20 22 21 417 27 753 13 927
35 981 127 23 38 21 81 -8 194 -63 244 -198 508 -274 538 -63 24 -182 39 -393
48 -224 10 -301 19 -320 38 -15 15 35 159 198 562 244 607 477 1140 500 1140
9 0 117 -232 227 -490 142 -330 284 -679 605 -1475 322 -800 461 -1138 551
-1340 74 -168 74 -168 191 -192 91 -19 474 -29 579 -14 128 17 147 45 107 164
-157 467 -1269 3247 -1588 3972 -39 88 -91 190 -115 227 -76 116 -193 205
-335 255 -100 36 -297 43 -403 14z"/>
<path d="M1030 4709 c-287 -14 -413 -43 -566 -130 -192 -110 -303 -305 -349
-613 -35 -239 -42 -725 -14 -935 16 -113 43 -191 135 -379 l83 -173 -76 -127
c-124 -205 -137 -246 -154 -462 -16 -198 -6 -877 15 -1021 46 -324 145 -502
356 -638 114 -74 230 -86 925 -101 540 -11 1926 -12 2111 -1 108 6 127 10 187
39 86 43 171 120 191 175 49 130 57 510 54 2472 l-3 1640 -158 132 -158 133
-1207 -2 c-664 0 -1281 -5 -1372 -9z m2110 -2295 l0 -1466 -947 5 c-1083 6
-1211 13 -1249 72 -33 51 -47 172 -48 425 -1 303 20 454 68 485 51 33 355 59
866 75 608 19 660 40 682 278 11 120 3 364 -14 414 -13 39 -43 75 -78 93 -56
29 -165 37 -664 45 -628 11 -678 18 -769 119 -45 50 -63 111 -77 256 -21 227
-10 475 26 564 20 50 61 68 192 81 154 16 170 16 1115 18 l897 2 0 -1466z"/>
<path d="M12390 4709 c-393 -11 -604 -34 -731 -78 -286 -98 -550 -374 -654
-684 -67 -200 -78 -465 -72 -1663 3 -569 9 -974 16 -1044 41 -418 102 -562
345 -806 112 -112 129 -125 226 -172 156 -77 295 -107 615 -134 210 -18 1402
-18 1620 0 325 26 519 71 660 154 86 50 279 241 348 345 122 184 165 373 187
828 13 271 13 1732 0 1980 -28 529 -87 694 -341 956 -177 181 -349 256 -675
294 -271 32 -948 42 -1544 24z m1345 -849 c165 -16 202 -30 264 -94 59 -63 82
-111 105 -217 32 -148 38 -281 43 -934 8 -997 -14 -1351 -92 -1506 -22 -43
-72 -96 -108 -115 -49 -26 -225 -34 -862 -41 -1105 -10 -1219 13 -1299 265
-31 99 -62 289 -76 467 -29 358 -22 1277 11 1585 13 125 51 311 78 381 53 140
178 198 470 219 169 11 1327 4 1466 -10z"/>
<path d="M16607 4710 c-136 -4 -277 -11 -312 -15 l-65 -7 -11 -41 c-28 -104
-26 -583 3 -662 27 -72 34 -74 298 -85 129 -5 735 -13 1346 -17 l1110 -6 47
-71 c88 -136 118 -246 118 -441 1 -198 -43 -354 -119 -428 -36 -35 -41 -36
-142 -46 -256 -25 -825 -45 -1840 -66 -399 -8 -746 -15 -772 -15 l-48 0 0
-1335 0 -1335 368 0 369 0 6 488 c4 268 10 686 14 930 l6 442 71 0 c107 0
1159 -30 1161 -33 1 -1 158 -281 350 -622 546 -973 654 -1154 704 -1180 71
-36 161 -49 356 -49 251 0 420 28 472 80 l23 23 -25 68 c-58 153 -258 520
-682 1251 -151 261 -273 475 -271 477 2 2 55 23 118 45 195 70 284 122 390
230 151 152 246 372 295 682 22 140 31 529 16 695 -41 439 -178 732 -416 885
-136 88 -258 127 -465 149 -126 14 -2095 21 -2473 9z"/>
<path d="M21477 4660 c-72 -9 -90 -25 -91 -82 -1 -35 15 -77 87 -223 197 -401
665 -1251 939 -1702 112 -185 117 -206 72 -296 -15 -29 -77 -126 -139 -217
-404 -594 -1085 -1840 -1085 -1984 0 -117 609 -143 821 -36 20 11 52 41 72 67
54 75 261 424 487 823 342 601 426 735 527 832 125 119 143 123 786 164 l107
6 0 -633 c0 -1021 21 -1241 122 -1296 39 -21 150 -23 481 -9 l207 8 0 2279 0
2278 -32 5 c-69 11 -547 23 -596 15 -72 -11 -91 -24 -117 -82 -50 -113 -65
-387 -65 -1189 l0 -618 -22 0 c-56 0 -441 31 -508 40 -106 16 -218 47 -266 75
-28 17 -60 52 -101 112 -77 113 -224 352 -345 563 -464 804 -622 1076 -625
1079 -3 4 -183 12 -528 24 -71 2 -156 1 -188 -3z"/>
</g>
</svg>
